<svg width="120" height="32" viewBox="0 0 120 32" fill="none" xmlns="http://www.w3.org/2000/svg">
  <path d="M12 8C9.79086 8 8 9.79086 8 12V20C8 22.2091 9.79086 24 12 24H20C22.2091 24 24 22.2091 24 20V12C24 9.79086 22.2091 8 20 8H12ZM12 10H20C21.1046 10 22 10.8954 22 12V20C22 21.1046 21.1046 22 20 22H12C10.8954 22 10 21.1046 10 20V12C10 10.8954 10.8954 10 12 10Z" fill="#2563eb"/>
  <path d="M14 14H18V18H14V14Z" fill="#2563eb"/>
  <text x="32" y="22" font-family="Arial" font-size="24" font-weight="bold" fill="#111827">Cleo</text>
</svg> 